<?xml version="1.0" standalone="no"?>
<!DOCTYPE svg PUBLIC "-//W3C//DTD SVG 20010904//EN"
 "http://www.w3.org/TR/2001/REC-SVG-20010904/DTD/svg10.dtd">
<svg version="1.0" xmlns="http://www.w3.org/2000/svg"
 width="1039.000000pt" height="517.000000pt" viewBox="0 0 1039.000000 517.000000"
 preserveAspectRatio="xMidYMid meet">

<g transform="translate(0.000000,517.000000) scale(0.100000,-0.100000)"
fill="#000000" stroke="none">
<path d="M4841 4376 c-6 -7 -15 -33 -19 -57 l-7 -44 -90 -31 c-117 -39 -232
-98 -289 -147 -46 -39 -51 -57 -15 -57 10 0 19 -2 19 -5 0 -3 -16 -38 -36 -78
-46 -90 -74 -171 -74 -212 0 -40 30 -148 69 -249 43 -112 46 -134 25 -157 -14
-16 -16 -32 -11 -110 l6 -92 -50 -57 c-44 -51 -60 -80 -43 -80 3 0 27 23 52
51 l45 51 14 -26 c8 -15 11 -31 8 -36 -3 -5 -1 -12 5 -15 6 -4 0 -21 -18 -43
-15 -20 -41 -59 -58 -87 -16 -27 -35 -59 -42 -70 -7 -11 -19 -35 -27 -52 -13
-29 -13 -35 0 -50 8 -10 21 -27 29 -38 11 -14 15 -16 16 -6 0 8 -10 25 -21 37
-22 24 -20 55 3 53 10 0 10 -2 0 -6 -10 -4 -6 -13 14 -34 15 -16 32 -29 38
-29 5 0 0 9 -12 20 -22 21 -31 80 -12 80 6 0 10 -14 10 -30 0 -35 13 -43 61
-38 l33 3 -32 35 c-18 19 -32 38 -32 42 0 15 26 -4 54 -40 16 -20 26 -29 23
-19 -5 14 0 17 34 17 34 0 40 -3 35 -16 -5 -14 -4 -15 8 -5 8 7 14 18 12 24
-1 7 -1 9 1 5 9 -15 19 -8 20 13 2 25 10 35 20 25 7 -7 -41 -108 -62 -132 -5
-6 -30 -43 -55 -82 -40 -62 -50 -71 -89 -81 -67 -18 -95 -36 -113 -73 -21 -41
-32 -71 -30 -80 1 -4 -4 -5 -11 -2 -17 6 -57 67 -72 110 -9 26 -14 32 -18 20
-4 -9 0 -37 9 -61 8 -25 12 -51 8 -57 -5 -7 -2 -9 8 -5 14 5 14 2 1 -24 -13
-27 -13 -32 1 -48 17 -19 21 -77 7 -99 -6 -10 -10 -10 -21 3 -20 24 -30 17
-15 -12 12 -24 11 -29 -9 -57 -13 -17 -27 -41 -31 -53 -7 -25 -21 -30 -27 -11
-3 7 8 30 24 52 34 47 35 60 6 96 -13 15 -31 42 -40 59 -22 40 -33 34 -43 -21
-10 -53 -7 -75 12 -112 11 -20 11 -27 2 -24 -21 7 -49 71 -49 113 0 23 9 55
21 74 11 18 18 36 15 39 -3 2 -26 -12 -50 -32 -32 -26 -47 -47 -52 -71 -12
-65 45 -183 125 -258 51 -47 175 -116 187 -104 4 4 8 33 8 65 1 37 8 69 19 85
9 14 17 34 17 43 0 17 -34 66 -41 59 -7 -6 -3 62 6 130 9 69 37 125 77 151 17
12 26 25 23 34 -5 17 51 57 63 45 6 -6 -8 -18 -33 -29 -5 -3 0 -13 12 -23 l23
-18 -25 -29 c-31 -37 -31 -50 0 -74 26 -21 35 -39 13 -26 -24 13 6 -13 51 -45
45 -31 71 -39 71 -21 0 6 -20 20 -45 32 -25 12 -45 25 -45 29 0 4 27 32 60 62
33 31 60 60 60 66 0 6 -20 22 -45 37 -37 21 -48 24 -60 14 -9 -7 -18 -11 -21
-8 -3 3 10 18 27 32 23 20 39 26 56 21 25 -6 103 23 128 49 9 9 15 34 15 65 0
28 4 51 8 51 5 0 18 -18 31 -40 22 -39 77 -83 146 -116 20 -9 39 -24 42 -33 2
-9 9 -24 14 -33 14 -28 12 -28 -33 -8 -48 22 -78 25 -78 10 0 -6 8 -13 18 -16
41 -14 85 -41 115 -73 34 -36 24 -32 -59 23 -50 33 -51 33 -46 10 2 -13 11
-24 19 -24 10 0 12 -6 8 -22 -6 -16 -4 -20 9 -15 8 3 18 2 21 -3 3 -5 12 -7
19 -4 8 3 26 -10 42 -29 28 -32 91 -64 103 -51 3 3 -12 21 -33 40 -22 19 -37
34 -33 34 3 0 49 -23 101 -50 164 -88 222 -104 363 -105 117 0 120 -1 75 -12
-71 -19 -147 -16 -247 10 -108 29 -142 42 -147 58 -3 8 -14 9 -36 4 -31 -6
-32 -8 -32 -63 -1 -48 -7 -189 -13 -292 -3 -42 17 -38 25 5 4 22 7 107 8 188
1 110 4 147 13 144 9 -3 13 -68 15 -240 l2 -237 -35 0 c-31 0 -37 -4 -50 -36
l-15 -37 -85 6 c-59 4 -91 11 -101 22 -23 23 -12 28 67 36 38 3 72 9 76 13 11
11 -5 18 -49 21 -24 2 -65 8 -93 14 -27 7 -67 9 -87 5 -45 -7 -47 2 -11 36 18
17 28 21 30 12 3 -6 9 -9 15 -6 6 4 34 6 63 5 50 -1 52 0 94 49 24 28 41 54
38 56 -3 3 -26 -13 -50 -36 -37 -33 -50 -40 -71 -34 -14 3 -26 10 -26 15 0 5
-11 9 -25 9 -22 0 -25 4 -25 39 0 36 3 40 30 46 33 7 90 34 90 42 0 4 -35 -1
-85 -13 -11 -3 -16 -2 -10 3 25 20 47 65 36 76 -22 22 -13 47 17 48 l27 0 -25
11 c-50 20 -55 26 -66 69 l-11 44 -7 -35 c-10 -42 -36 -90 -50 -90 -5 0 -30
-10 -54 -21 -24 -12 -47 -18 -51 -13 -10 15 -112 55 -163 65 -37 8 -54 6 -77
-6 -17 -8 -39 -15 -50 -15 -17 0 -18 -3 -8 -30 9 -25 8 -40 -5 -77 -9 -26 -15
-49 -13 -51 2 -3 17 0 33 6 34 12 139 -7 190 -33 l33 -17 -21 -36 c-18 -30
-20 -39 -9 -59 13 -24 77 -70 92 -65 15 4 6 -25 -13 -46 -25 -27 -7 -39 19
-13 l21 21 11 -21 c9 -17 7 -21 -10 -26 -11 -3 -27 -15 -35 -28 -9 -14 -29
-25 -54 -29 -35 -5 -42 -11 -61 -52 -28 -59 -21 -89 11 -48 34 44 59 64 80 64
10 0 32 7 48 15 66 34 77 35 106 12 15 -12 53 -26 83 -32 l55 -11 -29 -16
c-90 -46 -130 -70 -162 -99 -34 -29 -41 -31 -87 -26 -88 10 -125 25 -142 58
-23 44 -29 28 -8 -20 13 -30 24 -41 40 -41 36 0 72 -17 77 -37 4 -17 5 -17 6
1 1 16 7 18 36 13 24 -4 41 0 57 12 94 72 209 141 236 141 48 0 62 -9 62 -41
0 -26 -4 -29 -31 -29 -16 0 -50 -5 -73 -11 l-43 -11 -6 -61 c-3 -34 -15 -98
-26 -142 -12 -44 -21 -98 -21 -120 0 -52 29 -112 71 -151 33 -30 89 -51 89
-33 0 5 -7 9 -17 9 -9 0 -32 12 -51 26 -64 50 -96 170 -51 194 28 15 36 5 16
-18 -23 -25 -21 -37 7 -55 13 -9 34 -32 46 -52 24 -39 66 -66 102 -64 19 1 17
3 -9 10 -17 5 -42 23 -55 40 -13 17 -38 46 -56 64 -33 32 -33 34 -14 44 11 6
22 21 24 33 3 20 7 16 32 -24 34 -59 54 -64 24 -7 -22 42 -69 79 -100 79 -10
0 -18 7 -18 16 0 12 7 14 33 10 29 -5 30 -5 10 6 -25 12 -28 25 -13 48 6 10
10 11 10 3 0 -26 27 -12 43 22 20 42 35 44 76 9 34 -29 41 -21 12 14 -11 12
-27 22 -35 22 -28 0 -32 31 -7 52 33 26 41 23 41 -17 0 -23 6 -38 15 -42 21
-8 30 3 17 20 -12 15 -5 57 10 57 5 0 6 4 3 10 -3 5 5 15 19 22 29 12 32 26
14 51 -9 12 -37 20 -88 26 -83 9 -54 13 85 11 94 -1 152 -14 210 -47 36 -20
42 -27 37 -50 -3 -18 -1 -24 7 -19 6 4 11 18 11 32 0 14 5 34 11 45 10 19 9
20 -11 9 -17 -9 -34 -6 -95 19 -50 21 -82 29 -102 25 -16 -3 -51 -2 -79 3 -27
5 -72 7 -99 4 -28 -4 -73 -1 -101 5 -50 11 -114 49 -114 66 0 5 13 -1 28 -12
27 -20 38 -21 158 -16 71 3 145 6 164 8 64 4 195 -4 212 -13 9 -5 24 -16 33
-25 15 -15 17 -15 30 4 8 11 25 22 37 26 13 3 47 37 77 76 56 74 76 83 76 34
0 -38 -12 -64 -31 -64 -12 0 -13 4 -4 20 10 19 9 20 -9 9 -19 -13 -31 -49 -31
-98 0 -15 -9 -44 -20 -66 -28 -55 -25 -79 12 -110 46 -39 132 -79 152 -72 21
8 13 23 -22 41 -46 23 -82 29 -40 6 53 -29 58 -46 7 -20 -72 36 -109 69 -109
95 0 13 5 27 10 30 6 3 10 15 10 26 0 17 9 21 48 19 4 -1 6 -10 4 -21 -7 -41
23 -66 113 -94 54 -18 83 -31 77 -37 -6 -6 -26 -4 -53 5 -24 9 -53 18 -64 22
-11 4 3 -7 32 -24 46 -27 55 -29 85 -19 44 15 68 36 85 78 9 19 24 45 34 58
28 36 33 82 14 127 -20 49 -75 88 -111 79 -28 -7 -92 -68 -103 -98 -5 -12 -29
-25 -65 -36 -48 -15 -59 -16 -70 -4 -30 30 -4 60 79 90 18 7 19 7 2 11 -12 3
-17 12 -15 26 2 18 12 23 58 30 30 5 81 6 113 4 l57 -5 0 41 c0 23 4 48 9 56
12 19 2 43 -15 37 -7 -3 -16 -1 -19 4 -4 6 -17 10 -30 10 -18 0 -23 4 -18 15
3 9 -3 25 -12 35 -17 19 -12 26 18 21 20 -3 4 18 -20 26 -97 34 -91 35 -128
-5 -33 -36 -34 -39 -29 -98 l6 -61 -51 -54 c-28 -30 -51 -58 -51 -64 0 -18
-45 -65 -65 -68 -11 -2 -28 -8 -38 -12 -12 -5 -24 -2 -34 7 -20 21 -11 36 94
167 46 57 86 115 89 128 4 14 -1 51 -11 83 -17 56 -14 87 6 74 6 -3 18 1 27 9
9 9 53 27 97 42 44 14 90 32 102 40 12 8 31 15 43 15 11 0 19 5 18 11 -2 6 20
28 48 48 54 38 104 91 104 110 0 6 5 11 10 11 6 0 10 7 10 15 0 17 16 20 25 5
3 -6 -3 -22 -14 -36 -12 -15 -21 -32 -21 -38 0 -6 10 4 23 21 13 19 31 33 43
33 26 0 48 24 63 69 14 42 14 108 1 113 -7 2 -5 43 5 117 22 166 27 151 -60
151 -63 0 -77 3 -94 22 -22 23 -19 41 4 32 17 -7 139 22 177 42 15 8 38 29 51
46 30 41 113 236 104 245 -24 24 -168 19 -357 -13 -35 -6 -35 -6 -16 15 11 12
24 21 30 21 6 0 43 16 81 34 39 18 71 32 73 31 2 -2 -1 -12 -7 -24 -7 -13 -8
-22 -1 -26 5 -3 10 1 10 9 0 9 9 33 20 53 24 45 26 76 5 93 -12 10 -26 7 -72
-14 -157 -73 -184 -94 -203 -166 -6 -22 -16 -42 -22 -46 -13 -8 -158 -8 -166
1 -3 3 2 13 11 23 30 33 21 49 -30 55 -27 3 -88 22 -136 42 -62 25 -93 33
-101 26 -7 -6 -29 -8 -50 -4 -29 5 -41 1 -60 -16 l-23 -21 1 22 c1 17 -5 24
-22 26 -24 4 -129 -51 -148 -76 -10 -13 -15 -9 -33 26 -12 24 -19 47 -16 52 3
4 1 20 -5 34 -10 27 1 61 25 78 6 4 55 6 110 4 90 -3 107 0 175 25 64 24 81
27 110 19 43 -12 40 -13 40 5 0 11 11 15 40 15 22 0 40 4 40 9 0 5 20 14 45
20 36 9 53 8 87 -4 24 -8 52 -15 62 -15 37 0 126 34 148 57 25 26 17 44 -9 21
-40 -34 -43 -27 -12 29 41 75 66 104 44 51 -24 -59 -18 -64 24 -23 22 22 37
43 35 47 -3 4 7 35 22 70 55 131 67 204 38 229 -13 10 -17 10 -25 -2 -7 -12
-9 -12 -9 2 0 8 -16 41 -35 73 -30 50 -32 56 -14 51 37 -12 2 35 -39 52 -20 8
-60 36 -88 62 -105 96 -242 120 -474 83 -203 -33 -235 -35 -338 -22 -77 11
-102 18 -123 37 -22 20 -28 22 -38 9z m1052 -286 c-2 -77 -14 -140 -28 -140
-3 0 -5 42 -4 93 0 59 -5 108 -15 137 -22 64 -20 69 17 30 31 -34 32 -37 30
-120z m-655 -855 c20 -3 57 -12 82 -19 42 -13 43 -14 14 -15 -30 -1 -157 -23
-214 -37 -56 -14 -103 -16 -96 -5 4 6 13 11 21 11 8 0 11 7 8 20 -3 11 -12 20
-19 20 -8 0 -14 5 -14 10 0 13 16 13 40 -2 26 -17 129 15 131 40 1 16 2 16 6
0 3 -11 18 -19 41 -23z m-278 -194 c110 -25 118 -29 161 -92 70 -104 123 -124
292 -110 151 12 198 33 248 117 43 70 74 82 108 38 30 -38 27 -44 -21 -44 -36
0 -53 -8 -108 -51 -36 -28 -99 -71 -140 -97 -67 -42 -80 -47 -131 -46 -63 2
-248 61 -319 103 -25 15 -60 36 -79 46 -51 30 -146 105 -133 105 7 0 11 6 10
12 -2 9 7 12 27 9 27 -3 28 -2 15 15 -14 16 -13 17 10 10 14 -4 41 -11 60 -15z
m-365 -171 c3 -5 1 -10 -4 -10 -6 0 -11 5 -11 10 0 6 2 10 4 10 3 0 8 -4 11
-10z m35 -14 c0 -3 -4 -8 -10 -11 -5 -3 -10 -1 -10 4 0 6 5 11 10 11 6 0 10
-2 10 -4z m733 -290 c65 -27 138 -136 120 -181 -8 -23 -18 -18 -21 10 -5 64
-63 130 -129 147 -42 10 -50 18 -36 31 10 11 30 8 66 -7z m652 -6 c-10 -11
-24 -41 -31 -67 -7 -27 -13 -38 -13 -26 -2 38 36 113 57 113 3 0 -3 -9 -13
-20z m-773 -107 c5 -7 6 -18 2 -24 -5 -9 -2 -10 9 -6 17 7 41 -15 29 -28 -4
-5 -1 -5 5 -1 12 7 95 -31 101 -46 2 -5 12 -8 23 -8 27 0 24 -18 -5 -26 -39
-9 -95 15 -143 62 -38 38 -43 48 -42 86 1 24 4 34 6 23 3 -11 10 -25 15 -32z
m-713 -29 c14 -12 -19 -1 -35 12 -18 14 -18 14 6 3 14 -6 27 -13 29 -15z m808
4 c18 -13 33 -27 33 -32 0 -5 -8 -2 -18 7 -10 10 -22 17 -26 17 -4 0 -14 7
-22 15 -23 22 -5 18 33 -7z m-1132 -108 c3 -5 1 -10 -4 -10 -6 0 -11 5 -11 10
0 6 2 10 4 10 3 0 8 -4 11 -10z m-225 -134 c0 -26 -6 -18 -14 19 -5 22 -4 26
4 15 5 -8 10 -24 10 -34z m1677 8 c-3 -3 -12 -4 -19 -1 -8 3 -5 6 6 6 11 1 17
-2 13 -5z m-438 -36 c30 -11 77 -22 105 -25 84 -9 98 -22 117 -98 20 -78 15
-102 -35 -155 -18 -19 -56 -68 -86 -107 l-54 -73 -40 7 c-23 3 -48 12 -57 19
-8 8 -21 14 -27 14 -9 0 -12 60 -12 226 0 211 1 226 18 219 9 -4 41 -16 71
-27z m388 26 c-3 -3 -12 -4 -19 -1 -8 3 -5 6 6 6 11 1 17 -2 13 -5z m-846
-107 c-8 -8 -11 -7 -11 4 0 20 13 34 18 19 3 -7 -1 -17 -7 -23z m-167 -97 c-7
-42 11 -82 49 -109 13 -9 16 -16 8 -24 -12 -12 -54 22 -73 58 -14 25 -12 83 3
101 18 21 20 17 13 -26z m176 16 c0 -3 -4 -8 -10 -11 -5 -3 -10 -1 -10 4 0 6
5 11 10 11 6 0 10 -2 10 -4z m855 -56 c3 -5 -1 -10 -9 -10 -9 0 -16 5 -16 10
0 6 4 10 9 10 6 0 13 -4 16 -10z m135 -130 c0 -5 -7 -7 -15 -4 -8 4 -15 8 -15
10 0 2 7 4 15 4 8 0 15 -4 15 -10z m-80 -167 c0 -15 13 -38 34 -59 36 -36 34
-42 -9 -22 -39 18 -70 89 -49 111 12 12 24 -4 24 -30z m-77 -60 c-4 -20 -1
-23 22 -23 15 0 40 -9 56 -21 16 -11 41 -22 57 -24 30 -3 31 -19 3 -49 -16
-15 -24 -17 -52 -7 -19 6 -60 18 -91 27 -64 17 -88 41 -80 80 5 27 25 39 66
39 21 0 24 -4 19 -22z m-715 -130 c-9 -10 -13 -24 -11 -30 3 -7 0 -13 -6 -13
-15 0 -14 33 1 48 19 19 33 14 16 -5z"/>
<path d="M6027 3823 c-4 -3 -7 -11 -7 -17 0 -6 5 -5 12 2 6 6 9 14 7 17 -3 3
-9 2 -12 -2z"/>
<path d="M4300 2996 c0 -9 5 -16 10 -16 6 0 10 4 10 9 0 6 -4 13 -10 16 -5 3
-10 -1 -10 -9z"/>
<path d="M4236 2883 c-6 -14 -5 -15 5 -6 7 7 10 15 7 18 -3 3 -9 -2 -12 -12z"/>
<path d="M4438 2713 c-58 -9 -62 -66 -5 -78 18 -4 38 -12 45 -17 6 -6 12 -7
12 -2 0 13 -13 28 -33 39 -10 6 -18 14 -17 19 1 5 -4 13 -12 18 -9 6 -4 8 16
6 16 -2 31 2 33 10 3 6 1 11 -4 11 -4 -1 -20 -4 -35 -6z"/>
<path d="M4490 2655 c0 -8 5 -15 10 -15 6 0 10 7 10 15 0 8 -4 15 -10 15 -5 0
-10 -7 -10 -15z"/>
<path d="M4136 2625 c-4 -16 -19 -54 -33 -84 -18 -39 -22 -59 -16 -74 8 -18
11 -17 28 19 10 21 18 50 17 64 l-2 25 20 -25 21 -25 -7 40 c-4 22 -10 51 -14
65 l-7 25 -7 -30z"/>
<path d="M4148 2424 c-5 -4 -8 -19 -8 -33 1 -23 2 -24 11 -8 11 19 9 53 -3 41z"/>
<path d="M4350 2395 c-13 -14 -20 -25 -15 -25 7 0 45 39 45 47 0 7 -8 2 -30
-22z"/>
<path d="M4681 2371 c-12 -16 -21 -34 -21 -41 0 -6 -3 -9 -7 -7 -5 3 -9 -5 -9
-18 -2 -28 -34 -74 -51 -75 -18 0 -16 -17 3 -24 23 -9 21 -10 50 37 15 23 28
44 30 46 1 1 13 -4 25 -13 40 -27 80 14 43 45 -10 8 -13 21 -9 37 4 16 1 28
-7 33 -20 13 -25 11 -47 -20z m54 -71 c0 -22 -29 -18 -33 3 -3 14 1 18 15 15
10 -2 18 -10 18 -18z"/>
<path d="M4292 2325 c-12 -27 -16 -55 -7 -55 3 0 14 9 25 20 18 18 18 24 -2
21 -4 0 -5 6 -2 14 5 13 10 12 34 -5 15 -11 34 -20 42 -20 12 0 -59 49 -73 50
-3 0 -11 -11 -17 -25z"/>
<path d="M5890 2325 c-8 -9 -8 -15 -2 -15 12 0 26 19 19 26 -2 2 -10 -2 -17
-11z"/>
<path d="M4850 2316 c0 -2 8 -10 18 -17 15 -13 16 -12 3 4 -13 16 -21 21 -21
13z"/>
<path d="M4910 2290 c0 -5 5 -10 10 -10 6 0 10 5 10 10 0 6 -4 10 -10 10 -5 0
-10 -4 -10 -10z"/>
<path d="M5844 2284 c-18 -14 -18 -14 6 -3 31 14 36 19 24 19 -6 0 -19 -7 -30
-16z"/>
<path d="M4880 2241 c0 -11 78 -26 87 -17 7 7 -42 26 -68 26 -10 0 -19 -4 -19
-9z"/>
<path d="M4955 2110 c3 -5 17 -10 31 -10 13 0 24 5 24 10 0 6 -14 10 -31 10
-17 0 -28 -4 -24 -10z"/>
<path d="M5498 2095 c-23 -30 -22 -37 1 -52 15 -10 20 -8 31 11 13 26 11 58
-5 62 -5 2 -18 -7 -27 -21z"/>
<path d="M3832 2086 c-67 -62 -118 -117 -154 -164 -22 -29 -73 -88 -114 -129
-41 -42 -74 -79 -74 -82 0 -13 -71 -62 -87 -59 -11 2 -19 -7 -25 -28 -10 -39
-56 -73 -69 -53 -7 11 -12 9 -25 -9 -11 -16 -22 -21 -36 -16 -18 5 -18 4 -8
-16 19 -35 5 -53 -36 -47 -32 5 -35 4 -32 -16 2 -18 -1 -21 -22 -19 -14 2 -30
10 -36 17 -8 11 -12 10 -22 -6 -16 -26 -52 -25 -52 1 0 31 -17 24 -24 -11 -5
-25 -9 -29 -26 -24 -12 4 -20 2 -20 -5 0 -6 -11 -15 -24 -21 -15 -7 -38 -38
-60 -83 -35 -69 -36 -73 -26 -136 5 -36 7 -87 4 -115 -5 -45 -3 -53 23 -81 25
-27 34 -30 83 -29 30 0 61 4 68 9 6 4 16 5 21 2 5 -4 36 2 68 12 32 10 75 17
96 14 31 -3 37 -1 37 14 0 20 78 74 105 74 8 0 17 5 21 11 4 7 21 9 45 5 29
-5 39 -3 39 7 0 20 41 54 73 62 28 8 35 -3 15 -23 -9 -9 -9 -12 0 -12 7 0 12
4 12 9 0 11 184 101 207 101 4 0 25 -9 46 -20 l38 -20 -3 26 c-2 18 3 30 17
37 131 73 211 136 329 257 76 78 116 125 116 136 0 18 -68 56 -83 47 -40 -23
-113 -94 -147 -143 -62 -91 -148 -162 -284 -234 -83 -44 -163 -51 -108 -10 15
12 15 13 -10 14 -15 0 -30 -5 -34 -11 -5 -8 -9 -8 -14 1 -6 9 -13 9 -31 0 -48
-25 -110 -83 -129 -121 -11 -21 -21 -39 -23 -39 -2 0 0 61 2 81 1 3 15 23 31
44 17 21 30 46 30 56 0 22 -28 26 -36 5 -3 -8 -15 -17 -27 -20 -15 -3 -32 -26
-52 -69 -21 -44 -43 -73 -75 -97 -61 -47 -111 -72 -133 -66 -11 3 -32 -8 -51
-25 -37 -32 -73 -37 -90 -14 -10 13 -16 13 -51 -6 -22 -12 -44 -28 -50 -36 -8
-11 -9 2 -5 45 4 45 12 68 33 93 15 19 42 53 60 76 17 22 44 49 60 58 29 18
33 15 16 -14 -10 -15 -8 -22 10 -40 26 -26 23 -26 71 5 30 20 43 37 51 68 6
22 16 47 21 53 6 7 8 23 5 35 -5 16 3 30 29 55 20 18 43 33 52 33 9 1 37 21
62 45 26 27 54 45 67 45 13 0 33 9 45 19 64 55 67 59 107 131 11 19 38 58 60
85 22 28 50 63 63 79 13 16 33 39 46 51 23 23 29 59 12 70 -19 11 -10 39 22
72 35 36 27 44 -10 9z m-772 -691 c-7 -9 -15 -13 -18 -10 -3 2 1 11 8 20 7 9
15 13 18 10 3 -2 -1 -11 -8 -20z m-92 -67 c-7 -13 -11 -26 -10 -30 2 -10 -2
-10 -23 -2 -14 6 -13 9 6 30 28 30 44 31 27 2z m5 -71 c4 3 7 1 7 -5 0 -10
-49 -42 -65 -42 -10 0 -5 46 7 58 9 9 15 8 28 -3 9 -8 20 -12 23 -8z"/>
<path d="M3891 2045 c-1 -11 8 -31 19 -45 24 -31 25 -41 3 -33 -19 8 -14 -3
31 -62 44 -56 57 -70 89 -90 22 -14 30 -15 42 -5 9 8 15 8 15 2 0 -6 -6 -13
-12 -16 -15 -5 13 -27 47 -37 22 -6 65 9 65 23 0 4 9 8 20 8 38 0 20 17 -47
45 -89 37 -144 75 -190 132 -83 100 -82 100 -82 78z"/>
<path d="M4915 2000 c3 -5 8 -10 11 -10 2 0 4 5 4 10 0 6 -5 10 -11 10 -5 0
-7 -4 -4 -10z"/>
<path d="M4490 1919 c0 -5 5 -7 10 -4 6 3 10 8 10 11 0 2 -4 4 -10 4 -5 0 -10
-5 -10 -11z"/>
<path d="M4411 1794 c13 -15 42 -44 63 -64 38 -36 39 -38 19 -49 -18 -9 -29
-5 -72 24 -60 41 -58 24 2 -21 37 -27 46 -29 72 -21 59 20 58 29 -15 95 -68
62 -116 86 -69 36z"/>
<path d="M5380 1760 c0 -5 7 -7 15 -4 8 4 15 8 15 10 0 2 -7 4 -15 4 -8 0 -15
-4 -15 -10z"/>
<path d="M5465 1549 c-4 -12 -2 -26 4 -32 8 -8 11 -2 11 21 0 37 -6 41 -15 11z"/>
<path d="M5239 1443 c-13 -16 -12 -17 4 -4 9 7 17 15 17 17 0 8 -8 3 -21 -13z"/>
<path d="M5167 1414 c-15 -18 -40 -37 -56 -42 -25 -9 -32 -7 -52 14 -12 13
-30 24 -38 24 -12 -1 -11 -5 6 -19 13 -11 26 -28 31 -40 7 -20 8 -19 67 10 71
36 85 49 76 70 -5 12 -11 9 -34 -17z"/>
<path d="M4394 1420 c35 -11 49 -30 34 -47 -15 -19 0 -16 20 3 14 15 14 18 -9
35 -13 10 -35 18 -49 18 -24 -1 -24 -1 4 -9z"/>
<path d="M3562 1398 c-14 -14 -16 -28 -2 -28 5 0 14 9 20 20 12 22 1 27 -18 8z"/>
<path d="M4390 1390 c0 -5 5 -10 10 -10 6 0 10 5 10 10 0 6 -4 10 -10 10 -5 0
-10 -4 -10 -10z"/>
<path d="M4910 1362 c0 -10 22 -32 32 -32 4 0 5 6 2 14 -6 16 -34 30 -34 18z"/>
<path d="M4407 1337 c4 -7 8 -15 8 -19 0 -14 20 -9 23 5 2 8 -6 17 -18 20 -13
3 -18 1 -13 -6z"/>
<path d="M4241 1314 c0 -11 3 -14 6 -6 3 7 2 16 -1 19 -3 4 -6 -2 -5 -13z"/>
<path d="M4935 1301 c-3 -5 -1 -12 5 -16 5 -3 10 1 10 9 0 18 -6 21 -15 7z"/>
<path d="M4390 1292 c0 -16 27 -45 33 -35 3 5 -3 17 -14 26 -10 9 -19 13 -19
9z"/>
<path d="M4960 1280 c0 -5 5 -10 10 -10 6 0 10 5 10 10 0 6 -4 10 -10 10 -5 0
-10 -4 -10 -10z"/>
<path d="M4202 1201 c-2 -58 3 -85 19 -119 22 -44 88 -102 117 -102 9 0 -5 13
-30 29 -72 46 -92 82 -99 181 l-6 85 -1 -74z"/>
<path d="M4495 1260 c3 -5 8 -10 11 -10 2 0 4 5 4 10 0 6 -5 10 -11 10 -5 0
-7 -4 -4 -10z"/>
<path d="M4955 1240 c4 -6 11 -8 16 -5 14 9 11 15 -7 15 -8 0 -12 -5 -9 -10z"/>
<path d="M4408 1223 c7 -3 16 -2 19 1 4 3 -2 6 -13 5 -11 0 -14 -3 -6 -6z"/>
<path d="M4252 1190 c-17 -28 -16 -34 18 -53 17 -10 37 -31 45 -47 18 -35 63
-60 102 -59 24 1 23 2 -9 8 -44 9 -61 22 -89 68 -12 19 -32 39 -46 44 -33 12
-20 29 25 30 30 2 32 3 10 6 -16 2 -28 9 -28 14 0 16 -15 10 -28 -11z"/>
<path d="M4945 1200 c-3 -5 1 -10 9 -10 9 0 16 5 16 10 0 6 -4 10 -9 10 -6 0
-13 -4 -16 -10z"/>
<path d="M3725 1180 c3 -5 8 -10 11 -10 2 0 4 5 4 10 0 6 -5 10 -11 10 -5 0
-7 -4 -4 -10z"/>
<path d="M4938 1168 c6 -6 18 -8 28 -6 14 3 12 5 -9 10 -19 3 -25 2 -19 -4z"/>
<path d="M4151 1144 c0 -11 3 -14 6 -6 3 7 2 16 -1 19 -3 4 -6 -2 -5 -13z"/>
<path d="M4995 1150 c3 -5 11 -10 16 -10 6 0 7 5 4 10 -3 6 -11 10 -16 10 -6
0 -7 -4 -4 -10z"/>
<path d="M4700 1146 c0 -32 54 -126 72 -126 6 0 4 8 -5 18 -9 10 -26 39 -37
65 -18 40 -30 58 -30 43z"/>
<path d="M4963 1123 c9 -2 23 -2 30 0 6 3 -1 5 -18 5 -16 0 -22 -2 -12 -5z"/>
<path d="M3360 1050 c0 -5 5 -10 10 -10 6 0 10 5 10 10 0 6 -4 10 -10 10 -5 0
-10 -4 -10 -10z"/>
<path d="M4465 1040 c-3 -5 -1 -10 4 -10 6 0 11 5 11 10 0 6 -2 10 -4 10 -3 0
-8 -4 -11 -10z"/>
<path d="M4420 980 c-20 -16 -21 -20 -8 -20 10 0 22 9 28 20 13 25 11 25 -20
0z"/>
<path d="M4274 976 c11 -9 24 -16 30 -16 12 0 7 5 -24 19 -24 11 -24 11 -6 -3z"/>
</g>
</svg>
